

<svg xmlns="http://www.w3.org/2000/svg"
     width="8.65278in" height="5.80556in"
     viewBox="0 0 623 418">
  <path id="Selection"
        fill="none" stroke="white" stroke-width="2"
        d="M 285.00,32.00
           C 285.00,32.00 305.00,32.00 305.00,32.00
             305.00,32.00 305.00,70.00 305.00,70.00
             304.93,75.43 303.82,82.00 301.66,87.00
             296.87,98.08 288.31,101.13 277.00,101.00
             274.05,100.96 271.80,100.93 269.00,99.78
             255.27,94.10 247.95,77.47 255.05,64.00
             257.10,60.11 260.45,56.50 264.00,53.94
             269.06,50.29 272.01,50.03 278.00,50.00
             278.00,50.00 282.38,50.00 282.38,50.00
             282.38,50.00 282.50,70.38 282.50,70.38
             279.62,69.58 278.04,68.78 275.28,70.89
             271.16,73.75 272.38,79.62 277.04,81.22
             284.63,83.83 284.99,74.78 285.00,70.00
             285.00,70.00 285.00,32.00 285.00,32.00 Z
           M 183.00,48.00
           C 183.00,48.00 249.00,48.00 249.00,48.00
             249.00,48.00 249.00,165.00 249.00,165.00
             249.00,165.00 249.00,192.00 249.00,192.00
             248.97,210.42 241.82,234.35 230.57,249.00
             213.98,270.61 189.59,280.04 163.00,280.00
             154.34,279.99 152.19,278.92 144.00,276.87
             130.32,273.45 119.53,268.72 109.00,258.91
             98.24,248.89 85.91,229.48 82.66,215.00
             80.54,205.53 80.89,196.63 81.00,187.00
             81.35,157.16 100.30,127.76 128.00,116.45
             138.09,112.33 152.11,109.02 163.00,109.00
             165.53,109.00 172.56,108.56 174.40,110.02
             176.38,111.59 176.00,115.70 176.00,118.00
             176.00,118.00 176.00,180.00 176.00,180.00
             172.31,178.19 169.22,176.24 165.00,176.07
             155.35,175.68 148.65,183.87 148.09,193.00
             147.15,208.30 163.06,218.69 174.90,209.36
             182.63,203.28 182.99,189.15 183.00,180.00
             183.00,180.00 183.00,48.00 183.00,48.00 Z
           M 313.00,100.00
           C 313.00,84.24 308.93,55.13 329.00,50.12
             334.27,48.95 335.88,49.60 341.00,50.12
             341.00,50.12 341.00,71.00 341.00,71.00
             338.48,70.59 336.54,70.10 334.60,72.33
             332.71,74.49 333.01,78.30 333.00,81.00
             333.00,81.00 333.00,100.00 333.00,100.00
             333.00,100.00 313.00,100.00 313.00,100.00 Z
           M 400.00,100.00
           C 400.00,100.00 400.00,70.00 400.00,70.00
             400.17,55.86 412.25,46.50 426.00,50.65
             429.38,51.66 432.24,53.89 435.00,56.00
             442.52,46.69 459.97,47.88 465.43,59.00
             469.41,67.09 468.00,90.08 468.00,100.00
             468.00,100.00 449.00,100.00 449.00,100.00
             449.00,100.00 448.00,69.00 448.00,69.00
             444.01,71.25 444.09,72.58 444.00,77.00
             444.00,77.00 444.00,100.00 444.00,100.00
             444.00,100.00 424.00,100.00 424.00,100.00
             424.00,100.00 424.00,69.00 424.00,69.00
             424.00,69.00 420.00,69.00 420.00,69.00
             420.00,69.00 419.00,100.00 419.00,100.00
             419.00,100.00 400.00,100.00 400.00,100.00 Z
           M 346.00,51.00
           C 346.00,51.00 365.00,51.00 365.00,51.00
             365.00,51.00 365.00,75.00 365.00,75.00
             365.04,76.99 365.01,81.80 368.00,81.80
             371.46,81.80 371.00,75.21 371.00,73.00
             371.00,73.00 371.00,51.00 371.00,51.00
             371.00,51.00 390.00,51.00 390.00,51.00
             390.00,61.32 391.82,82.53 387.10,91.00
             378.00,107.30 355.38,104.17 348.44,91.00
             344.58,83.68 346.00,60.28 346.00,51.00 Z
           M 473.00,81.00
           C 486.70,79.89 480.26,67.98 486.14,59.04
             490.95,51.73 502.04,51.01 510.00,51.00
             510.00,51.00 510.00,72.00 510.00,72.00
             499.10,72.90 503.77,82.91 497.87,91.99
             492.11,100.85 482.63,101.99 473.00,102.00
             473.00,102.00 473.00,81.00 473.00,81.00 Z
           M 271.00,110.00
           C 271.00,110.00 337.00,110.00 337.00,110.00
             337.00,110.00 337.00,201.00 337.00,201.00
             337.01,204.86 336.84,209.44 339.09,212.84
             343.26,219.01 352.02,218.97 356.27,212.84
             358.71,209.40 358.98,203.17 359.00,199.00
             359.06,186.31 355.93,168.01 367.02,159.42
             369.93,157.16 373.52,156.22 377.00,155.18
             381.35,153.88 382.57,154.01 387.00,154.00
             387.00,154.00 397.00,154.00 397.00,154.00
             400.74,154.05 404.39,154.46 408.00,155.49
             426.97,160.92 422.98,183.94 423.00,199.00
             423.01,203.27 422.97,209.31 425.58,212.90
             430.45,219.58 438.72,218.72 442.99,211.96
             445.21,208.44 444.99,204.96 445.00,201.00
             445.00,201.00 445.00,110.00 445.00,110.00
             445.00,110.00 511.00,110.00 511.00,110.00
             511.00,110.00 511.00,182.00 511.00,182.00
             511.00,195.29 511.19,216.60 506.90,229.00
             494.37,265.22 455.38,287.36 418.00,278.10
             410.41,276.22 396.29,267.81 390.00,263.00
             386.20,267.23 382.80,268.94 378.00,271.80
             345.04,291.47 297.59,274.05 280.26,241.00
             278.41,237.46 276.58,233.84 275.44,230.00
             273.81,224.54 271.07,200.04 271.00,194.00
             271.00,194.00 271.00,110.00 271.00,110.00 Z
           M 389.16,350.00
           C 389.16,350.00 389.16,342.98 389.16,342.98
             390.33,337.77 395.10,335.68 396.38,338.48
             398.30,342.67 391.82,347.96 389.16,350.00 Z
           M 26.00,357.00
           C 26.00,353.32 25.70,349.39 27.45,346.02
             32.17,336.93 49.96,336.99 59.00,337.00
             65.76,337.01 69.03,336.55 71.13,344.00
             71.74,346.22 71.95,347.77 71.13,350.00
             70.06,352.93 67.23,355.72 65.46,358.28
             65.46,358.28 56.32,374.00 56.32,374.00
             53.19,379.87 53.85,386.31 48.67,390.11
             45.97,392.09 42.38,392.13 42.47,387.94
             42.53,385.20 46.23,377.64 47.63,375.00
             47.63,375.00 54.00,365.00 54.00,365.00
             54.00,365.00 65.00,349.00 65.00,349.00
             50.47,349.00 46.97,348.76 33.00,354.00
             33.00,354.00 38.00,355.00 38.00,355.00
             38.00,355.00 38.00,357.00 38.00,357.00
             38.00,357.00 26.00,357.00 26.00,357.00 Z
           M 81.98,373.00
           C 81.98,373.00 72.66,382.96 72.66,382.96
             71.58,384.22 69.82,386.63 67.97,386.66
             64.65,386.72 64.32,380.25 64.53,378.00
             65.29,369.76 76.53,354.25 82.05,348.00
             84.04,345.75 88.71,339.98 91.00,338.71
             92.42,337.92 94.63,337.43 95.29,339.45
             96.04,341.75 91.79,347.95 90.46,350.00
             90.46,350.00 77.12,367.27 77.12,367.27
             74.26,370.77 71.94,372.32 72.00,377.00
             74.40,372.74 80.82,366.41 85.00,363.89
             87.23,362.55 91.28,361.46 91.96,365.15
             92.65,368.84 87.35,372.03 85.00,380.00
             97.36,376.35 94.07,365.25 108.00,360.70
             113.48,358.91 118.97,361.87 115.14,367.90
             112.33,372.32 104.77,376.08 100.00,378.00
             106.08,384.99 108.15,380.31 117.00,376.00
             114.04,386.10 97.23,397.20 93.00,381.00
             90.53,382.66 84.26,388.15 81.98,388.43
             73.30,389.49 80.43,375.78 81.98,373.00 Z
           M 485.00,381.00
           C 481.09,384.91 475.34,391.09 471.00,394.10
             460.74,401.21 443.85,404.82 441.38,388.00
             440.94,385.62 441.03,383.37 441.38,381.00
             444.05,367.10 455.19,356.26 465.00,347.04
             469.53,342.78 482.05,333.06 488.35,338.74
             491.57,341.64 491.03,346.34 489.76,350.00
             486.68,358.86 482.59,363.50 475.72,369.58
             473.39,371.63 467.65,376.89 464.35,374.92
             460.71,372.74 464.60,367.12 466.34,365.00
             470.74,359.65 472.83,360.00 475.20,358.22
             479.72,354.82 484.16,347.71 484.00,342.00
             472.32,346.72 458.57,362.61 453.51,374.00
             450.02,381.86 449.88,394.08 462.00,391.47
             469.30,389.89 479.17,382.78 483.70,377.00
             483.70,377.00 488.71,368.00 488.71,368.00
             488.71,368.00 498.86,353.00 498.86,353.00
             503.24,346.86 508.35,336.90 517.00,338.00
             515.34,346.18 504.45,359.25 499.00,366.00
             495.60,370.21 492.54,372.74 491.00,378.00
             495.13,373.24 500.42,366.99 506.00,363.89
             508.60,362.45 512.22,362.11 512.41,366.06
             512.54,368.78 506.68,376.31 505.00,380.00
             519.05,375.98 511.60,368.64 526.00,361.68
             533.04,358.28 537.38,362.74 536.66,370.00
             536.37,372.83 535.14,375.44 534.00,378.00
             540.84,373.87 543.00,361.23 550.85,361.66
             554.04,361.83 553.66,364.86 552.71,366.99
             551.16,370.44 541.36,378.68 547.27,380.18
             549.68,380.79 553.00,378.16 554.53,376.53
             557.47,373.43 560.05,367.02 568.00,362.29
             568.00,362.29 571.00,360.91 571.00,360.91
             572.56,360.27 574.83,359.83 576.25,360.91
             579.65,363.79 574.59,370.39 573.00,373.00
             568.92,372.26 566.48,371.77 563.48,375.47
             560.72,378.87 563.04,382.73 567.04,382.30
             576.66,381.26 580.36,369.25 589.00,363.17
             591.66,361.30 598.30,358.02 600.96,361.60
             604.84,366.82 594.34,373.48 591.02,375.71
             589.56,376.68 586.53,378.42 587.91,380.64
             590.50,384.77 599.45,377.59 602.00,376.00
             600.18,386.96 580.38,397.09 579.00,380.00
             574.60,384.05 565.77,393.63 559.68,387.69
             558.04,386.08 557.04,384.01 556.00,382.00
             551.42,385.70 544.67,392.39 539.93,384.94
             539.06,383.57 538.50,381.55 538.00,380.00
             534.33,382.47 523.39,389.55 519.30,387.62
             516.67,386.38 515.27,383.44 514.00,381.00
             511.25,382.61 504.89,387.85 503.02,388.26
             501.73,388.54 500.57,388.30 499.60,387.38
             496.25,384.19 500.28,377.12 502.00,374.00
             494.24,380.17 487.97,394.75 485.00,381.00 Z
           M 151.00,354.00
           C 146.48,356.32 134.01,363.11 136.40,352.00
             136.61,351.00 136.96,350.00 137.45,349.09
             139.82,344.74 145.54,342.44 150.00,340.86
             160.59,337.13 175.61,335.17 183.47,345.04
             185.81,347.97 186.75,350.28 186.96,354.00
             188.14,375.34 165.80,388.36 147.00,389.83
             139.13,390.44 138.89,385.15 141.13,379.00
             141.13,379.00 159.00,349.00 159.00,349.00
             159.00,349.00 144.00,354.00 144.00,354.00
             144.00,354.00 151.00,354.00 151.00,354.00 Z
           M 146.00,381.00
           C 156.31,383.48 170.72,377.94 177.53,369.96
             182.33,364.34 184.61,354.55 176.90,350.17
             173.78,348.40 166.64,348.03 163.00,348.00
             163.00,348.00 146.00,381.00 146.00,381.00 Z
           M 555.09,351.17
           C 561.50,350.55 559.84,357.12 556.66,358.72
             553.12,360.50 548.43,356.15 555.09,351.17 Z
           M 418.00,376.00
           C 416.34,381.64 409.89,387.07 404.00,388.18
             397.89,389.33 392.19,384.27 393.29,378.00
             394.21,372.75 400.29,368.08 403.63,364.00
             407.21,359.63 407.00,357.98 413.00,357.00
             413.00,357.00 414.63,368.00 414.63,368.00
             414.59,374.45 409.50,378.29 405.00,382.00
             405.00,382.00 418.00,376.00 418.00,376.00 Z
           M 188.00,379.00
           C 189.55,370.87 188.24,361.93 198.00,359.00
             201.68,364.43 205.09,359.27 208.13,362.61
             212.16,367.04 203.88,370.74 202.00,380.00
             216.16,375.82 213.05,359.43 227.00,362.00
             224.92,371.76 219.28,369.34 216.00,379.00
             220.59,376.93 226.06,371.75 229.41,367.96
             231.15,365.99 234.79,361.09 237.03,360.17
             239.36,359.22 240.66,360.77 240.63,363.02
             240.60,365.62 238.07,368.93 236.64,371.04
             233.84,375.15 233.68,375.32 232.00,380.00
             243.16,377.63 240.44,369.37 248.28,364.67
             251.48,362.76 253.88,364.09 253.29,366.89
             252.94,368.60 250.89,370.73 249.79,372.09
             249.79,372.09 246.00,377.00 246.00,377.00
             251.30,373.20 257.22,365.93 262.00,363.43
             263.39,362.71 265.12,362.05 266.68,362.65
             271.47,364.52 265.51,372.68 264.00,375.00
             264.00,375.00 276.56,364.31 276.56,364.31
             280.07,362.31 282.03,364.89 281.58,368.02
             280.80,373.44 275.76,373.21 276.00,381.00
             286.28,374.94 283.34,370.50 290.04,365.43
             294.40,362.13 296.91,364.25 296.26,366.89
             295.85,368.56 293.60,370.70 292.50,372.09
             292.50,372.09 289.00,377.00 289.00,377.00
             294.45,373.01 299.03,366.27 305.00,363.32
             309.98,360.86 313.45,363.28 309.95,370.00
             309.95,370.00 307.00,375.00 307.00,375.00
             307.00,375.00 319.56,364.31 319.56,364.31
             323.07,362.31 325.03,364.89 324.58,368.02
             323.80,373.44 318.76,373.21 319.00,381.00
             331.64,373.07 324.81,369.57 338.00,362.11
             340.73,360.56 345.78,358.80 348.36,361.60
             354.08,367.80 337.63,375.93 336.37,377.07
             334.00,379.20 335.60,381.43 338.06,381.60
             341.36,381.83 348.44,376.89 349.69,373.91
             350.64,371.65 349.62,369.43 351.09,366.00
             352.81,361.99 355.05,360.38 359.00,359.00
             362.68,364.43 366.09,359.27 369.13,362.61
             373.16,367.04 364.88,370.74 363.00,380.00
             363.00,380.00 373.00,375.00 373.00,375.00
             372.16,380.17 367.48,386.46 362.02,387.51
             354.60,388.94 356.09,380.05 358.06,376.00
             359.20,373.64 360.41,372.05 362.00,370.00
             359.63,370.62 358.21,370.89 356.21,372.50
             354.72,373.70 353.67,375.31 352.41,376.72
             347.67,382.02 334.62,395.55 327.85,385.87
             326.75,384.30 326.47,382.79 326.00,381.00
             323.49,382.84 312.04,393.18 310.34,385.77
             309.52,382.22 312.56,379.35 313.00,374.00
             310.48,378.95 303.23,386.20 298.00,388.00
             295.57,381.42 299.36,378.10 302.00,372.00
             292.13,380.13 287.20,394.88 283.00,381.00
             280.28,383.08 276.14,386.92 272.99,387.90
             266.85,389.81 266.88,384.07 268.52,380.00
             268.52,380.00 271.00,375.00 271.00,375.00
             264.75,380.15 262.78,385.65 255.00,388.00
             253.09,380.96 256.25,378.34 259.00,372.00
             249.62,379.73 244.24,395.00 240.00,381.00
             237.55,383.12 229.29,391.34 226.02,387.39
             224.76,385.86 225.09,381.08 225.00,379.00
             221.17,385.67 212.43,392.03 211.00,380.00
             209.13,381.85 206.17,384.93 204.00,386.26
             199.62,388.94 195.17,387.64 195.29,382.00
             195.38,377.69 198.48,373.26 201.00,370.00
             192.24,372.28 195.05,374.78 188.00,379.00 Z
           M 322.00,364.00 322.00,364.00 322.00,364.00 322.00,364.00
           M 110.00,365.00
           C 105.18,366.96 102.78,369.06 101.00,374.00
             106.03,371.85 108.17,370.25 110.00,365.00 Z
           M 343.00,365.00
           C 338.04,367.04 336.21,369.15 334.00,374.00
             339.03,371.85 341.17,370.25 343.00,365.00 Z
           M 596.00,365.00
           C 590.78,366.78 588.58,368.64 587.00,374.00
             591.72,371.46 593.67,369.91 596.00,365.00 Z
           M 406.00,368.00
           C 406.00,368.00 397.00,375.00 397.00,375.00
             397.00,375.00 402.00,380.00 402.00,380.00
             407.22,376.64 407.62,373.78 406.00,368.00 Z
           M 529.00,368.00
           C 522.20,371.22 520.90,374.15 519.00,381.00
             527.56,383.22 526.34,379.21 527.37,374.00
             527.37,374.00 529.00,368.00 529.00,368.00 Z
           M 52.00,370.00 52.00,370.00 52.00,370.00 52.00,370.00
           M 83.00,372.00 83.00,372.00 83.00,372.00 83.00,372.00
           M 314.00,373.00 314.00,373.00 314.00,373.00 314.00,373.00
           M 264.00,375.00 264.00,375.00 264.00,375.00 264.00,375.00
           M 307.00,375.00
           C 307.00,375.00 307.00,376.00 307.00,376.00
             307.00,376.00 307.00,375.00 307.00,375.00 Z
           M 263.00,376.00 263.00,376.00 263.00,376.00 263.00,376.00" />
</svg>
