
<svg class="fadeIn" xmlns="http://www.w3.org/2000/svg"
     width="7.05556in" height="6.86111in"
     viewBox="0 0 508 494">
  <path id="dwLogo"
        fill="none" stroke="black" stroke-width="1"
        d="M 231.00,0.21
           C 231.00,0.21 269.00,0.21 269.00,0.21
             292.23,0.04 324.21,7.83 346.00,15.95
             379.65,28.49 414.05,50.07 438.96,76.00
             464.30,102.37 484.06,134.40 495.92,169.00
             501.70,185.85 507.97,215.32 508.00,233.00
             508.00,233.00 508.00,263.00 508.00,263.00
             508.00,263.00 506.13,281.00 506.13,281.00
             500.51,321.44 484.61,360.28 460.11,393.00
             439.62,420.36 414.54,442.43 385.00,459.58
             352.83,478.25 306.47,493.94 269.00,494.00
             269.00,494.00 237.00,494.00 237.00,494.00
             215.59,493.75 183.10,486.01 163.00,478.42
             128.40,465.37 96.09,445.40 70.01,419.00
             0.19,348.27 -19.55,241.09 19.43,150.00
             47.11,85.30 102.23,37.10 168.00,13.69
             182.26,8.62 200.00,4.48 215.00,2.27
             215.00,2.27 231.00,0.21 231.00,0.21 Z
           M 260.00,9.00
           C 255.62,7.76 242.03,6.30 239.85,11.23
             238.14,14.66 239.79,21.16 239.85,25.00
             240.07,27.51 239.55,33.54 241.02,35.40
             242.49,37.26 245.87,36.98 248.00,37.00
             253.55,37.04 257.83,38.12 262.00,34.00
             255.77,32.49 248.71,33.59 246.31,31.98
             243.45,30.05 243.64,25.52 248.06,24.31
             250.79,23.57 253.31,24.62 259.00,23.00
             259.00,23.00 259.00,21.00 259.00,21.00
             259.00,21.00 244.00,20.00 244.00,20.00
             244.41,8.40 250.07,13.82 260.00,11.00
             260.00,11.00 260.00,9.00 260.00,9.00 Z
           M 268.00,8.00
           C 265.79,12.67 265.44,14.91 265.00,20.00
             264.68,23.69 263.39,30.57 264.31,33.94
             265.74,39.18 275.77,38.79 279.99,37.49
             288.89,34.75 292.83,17.07 281.98,11.16
             279.34,9.72 271.37,8.61 268.00,8.00 Z
           M 235.00,9.00
           C 224.96,9.09 212.01,11.43 202.00,13.26
             199.33,13.75 192.78,14.74 191.61,17.43
             190.78,19.35 191.90,23.03 192.42,25.00
             192.42,25.00 196.00,41.00 196.00,41.00
             189.39,37.28 186.21,30.63 181.34,25.06
             179.70,23.19 177.16,20.52 174.43,22.08
             171.58,23.71 172.00,29.18 172.00,32.00
             171.99,39.08 173.08,42.81 169.00,49.00
             169.00,49.00 163.69,39.91 163.69,39.91
             162.63,37.10 163.20,34.17 159.85,31.74
             153.76,27.30 144.35,33.82 139.00,37.00
             139.00,37.00 149.68,59.71 149.68,59.71
             149.68,59.71 153.00,62.00 153.00,62.00
             154.08,55.70 151.46,56.23 151.25,52.44
             151.01,48.26 158.36,45.20 161.67,47.04
             163.71,48.17 165.04,51.04 166.61,52.22
             168.01,53.28 169.29,53.46 171.00,53.09
             178.84,51.38 173.05,44.12 181.02,40.98
             187.25,38.53 188.09,43.28 192.04,44.28
             193.97,44.76 198.52,43.31 201.00,43.00
             200.79,40.67 199.33,34.67 199.78,33.14
             200.77,29.76 207.92,28.69 211.00,28.00
             211.00,28.00 211.00,24.00 211.00,24.00
             208.45,24.21 201.84,25.74 200.11,25.23
             197.32,24.40 195.69,21.03 198.36,19.01
             201.46,16.65 216.53,14.80 221.00,14.00
             221.00,14.00 223.83,27.00 223.83,27.00
             223.83,27.00 224.60,35.69 224.60,35.69
             224.60,35.69 229.00,38.00 229.00,38.00
             229.00,38.00 227.12,22.00 227.12,22.00
             226.86,20.24 226.36,16.87 227.12,15.31
             229.27,11.45 232.81,15.26 235.00,9.00 Z
           M 271.58,14.02
           C 283.70,9.06 287.69,26.04 280.36,31.93
             277.95,34.20 271.25,35.06 269.60,31.93
             267.78,27.98 269.10,17.21 271.58,14.02 Z
           M 324.00,27.00
           C 323.82,23.92 323.79,21.78 321.57,19.34
             316.95,14.26 306.62,13.61 303.91,21.02
             300.53,30.23 314.11,31.72 315.66,37.05
             316.81,40.96 310.30,43.40 305.68,38.59
             302.91,35.71 304.19,35.29 300.00,33.00
             296.99,45.85 314.83,49.65 320.11,41.89
             326.91,31.89 309.44,28.12 308.73,23.60
             308.31,20.90 311.96,19.92 313.99,20.37
             317.60,21.17 318.90,23.87 320.00,27.00
             320.00,27.00 324.00,27.00 324.00,27.00 Z
           M 323.00,50.00
           C 329.12,46.19 331.43,35.69 333.57,29.00
             334.01,27.62 335.36,20.94 331.50,23.17
             330.04,24.01 328.53,28.38 327.91,30.00
             325.77,35.61 322.18,44.13 323.00,50.00 Z
           M 349.00,48.00
           C 349.00,48.00 346.90,32.00 346.90,32.00
             346.63,29.88 346.07,27.25 343.83,26.36
             340.81,25.17 339.26,28.94 338.27,31.02
             335.95,35.92 331.33,46.09 330.00,50.93
             331.35,51.18 332.08,51.65 333.53,50.93
             336.57,49.22 339.38,40.33 340.00,37.00
             346.28,40.77 343.74,48.89 345.57,54.98
             346.18,57.01 347.92,60.13 350.52,58.83
             352.07,58.06 353.50,54.55 354.25,53.00
             355.65,50.11 361.88,37.73 361.19,35.31
             360.70,33.57 359.39,33.49 358.00,33.00
             358.00,33.00 352.00,48.00 352.00,48.00
             352.00,48.00 349.00,48.00 349.00,48.00 Z
           M 177.00,29.00
           C 177.97,29.76 178.80,30.21 179.65,31.22
             183.95,36.41 176.59,38.87 176.26,32.94
             176.17,31.42 176.62,30.39 177.00,29.00 Z
           M 153.96,34.06
           C 163.25,36.07 155.58,45.06 150.05,45.07
             146.65,45.08 144.73,41.01 146.11,38.39
             147.49,35.80 151.34,34.64 153.96,34.06 Z
           M 384.00,57.00
           C 386.45,48.05 378.78,40.62 371.00,41.48
             362.61,42.41 356.32,51.91 357.11,60.00
             357.67,65.74 362.39,70.00 368.00,70.78
             373.17,71.51 377.76,69.88 377.00,64.00
             373.89,65.31 370.49,67.25 367.04,66.07
             356.87,62.56 362.71,48.05 371.00,46.33
             379.06,44.66 379.21,53.52 384.00,57.00 Z
           M 137.00,48.00
           C 132.83,40.41 123.92,43.18 119.56,49.09
             115.00,55.27 117.81,64.87 123.18,69.61
             127.72,73.61 135.06,74.26 139.90,70.43
             144.75,66.58 147.24,59.75 141.00,56.00
             140.98,58.20 141.08,60.92 140.26,62.98
             133.62,79.85 111.26,54.91 127.04,48.74
             129.31,47.85 134.03,48.33 137.00,48.00 Z
           M 410.00,68.00
           C 407.33,64.36 398.81,55.72 394.04,55.85
             390.46,55.94 387.05,61.40 385.00,64.00
             383.02,66.51 377.53,72.82 377.61,75.91
             377.71,79.44 387.79,86.87 391.00,87.94
             392.77,88.45 393.33,88.15 395.00,87.94
             390.65,82.06 385.17,79.39 384.17,76.83
             383.06,73.99 385.59,70.78 389.00,71.74
             391.10,72.33 394.64,75.92 400.00,78.00
             398.65,69.71 393.93,70.97 392.05,66.71
             390.87,64.02 393.33,61.77 396.01,62.16
             401.21,62.94 402.02,68.72 410.00,68.00 Z
           M 248.00,62.00
           C 244.59,65.56 245.34,67.73 243.50,68.92
             239.02,71.84 236.54,63.49 234.49,61.74
             232.77,60.26 231.10,60.25 229.00,60.00
             229.76,65.01 230.93,66.09 234.00,70.00
             224.93,69.54 227.45,61.32 218.00,62.00
             218.00,62.00 223.00,71.00 223.00,71.00
             213.77,68.29 215.12,61.73 206.00,64.00
             206.00,64.00 206.00,66.00 206.00,66.00
             206.00,66.00 214.00,73.00 214.00,73.00
             203.96,71.38 206.13,63.88 195.00,67.00
             195.00,67.00 204.98,77.06 204.98,77.06
             204.98,77.06 202.00,88.00 202.00,88.00
             210.75,86.57 207.60,82.37 216.00,76.00
             216.00,76.00 211.00,88.00 211.00,88.00
             221.82,85.59 218.55,75.15 228.00,74.00
             228.00,74.00 223.00,85.00 223.00,85.00
             231.24,82.91 229.44,79.00 236.00,74.00
             236.00,74.00 232.00,84.00 232.00,84.00
             238.31,83.25 237.73,81.91 240.95,77.04
             240.95,77.04 245.00,71.00 245.00,71.00
             245.00,71.00 256.99,72.45 256.99,72.45
             256.99,72.45 266.26,82.38 266.26,82.38
             266.26,82.38 274.00,83.40 274.00,83.40
             274.00,83.40 280.00,85.00 280.00,85.00
             280.00,85.00 277.00,73.00 277.00,73.00
             281.92,78.21 284.74,85.86 292.00,88.00
             292.00,88.00 292.00,84.00 292.00,84.00
             292.00,84.00 301.00,90.00 301.00,90.00
             301.00,90.00 298.00,78.00 298.00,78.00
             302.45,83.15 304.01,90.89 311.00,93.00
             311.00,93.00 309.00,84.00 309.00,84.00
             314.63,89.60 312.78,97.76 321.00,94.00
             321.00,94.00 327.00,100.00 327.00,100.00
             327.00,100.00 326.00,90.00 326.00,90.00
             332.77,96.81 327.80,101.39 337.00,106.00
             337.00,106.00 335.00,96.00 335.00,96.00
             343.15,100.55 336.14,105.44 345.00,110.00
             345.00,110.00 346.00,103.00 346.00,103.00
             347.33,108.23 347.23,112.99 353.00,115.00
             353.00,115.00 354.00,106.00 354.00,106.00
             355.42,111.83 354.57,122.06 363.00,121.00
             363.00,121.00 360.00,112.00 360.00,112.00
             367.68,118.98 360.77,127.47 371.00,128.00
             371.00,128.00 370.00,122.00 370.00,122.00
             370.00,122.00 368.00,117.00 368.00,117.00
             374.58,123.78 367.80,130.70 378.00,133.00
             378.00,133.00 376.00,124.00 376.00,124.00
             381.98,129.31 379.39,130.98 387.00,134.00
             387.83,129.11 386.44,128.07 384.00,124.00
             384.00,124.00 390.00,123.00 390.00,123.00
             383.02,115.33 382.86,123.18 374.00,117.00
             374.00,117.00 384.00,116.00 384.00,116.00
             384.00,116.00 385.00,115.00 385.00,115.00
             379.01,105.65 375.51,116.78 366.00,112.00
             366.00,112.00 376.00,108.00 376.00,108.00
             376.00,108.00 376.00,104.00 376.00,104.00
             364.52,104.36 361.67,112.58 357.00,104.00
             357.00,104.00 368.00,101.00 368.00,101.00
             368.00,101.00 368.00,99.00 368.00,99.00
             357.94,94.59 361.12,102.39 348.00,101.00
             348.00,101.00 359.00,92.00 359.00,92.00
             347.23,88.67 348.37,96.01 338.00,94.00
             338.00,94.00 338.00,92.00 338.00,92.00
             338.00,92.00 348.00,88.00 348.00,88.00
             348.00,88.00 348.00,84.00 348.00,84.00
             345.30,84.01 342.57,83.85 340.00,84.85
             333.85,87.25 334.03,91.22 327.00,87.00
             332.36,85.32 335.86,84.62 338.00,79.00
             325.78,79.15 329.03,83.60 319.00,85.00
             319.00,85.00 318.00,93.00 318.00,93.00
             316.79,80.55 324.87,84.55 328.00,74.00
             328.00,74.00 310.00,81.00 310.00,81.00
             310.00,81.00 319.00,71.00 319.00,71.00
             304.58,71.05 308.00,76.80 298.00,76.00
             298.00,76.00 298.00,74.00 298.00,74.00
             298.00,74.00 307.00,70.00 307.00,70.00
             303.38,59.67 297.02,73.01 289.00,73.00
             289.00,73.00 297.00,66.00 297.00,66.00
             297.00,66.00 297.00,64.00 297.00,64.00
             287.44,61.85 289.88,68.88 280.00,71.00
             280.00,71.00 285.00,62.00 285.00,62.00
             276.31,60.50 279.65,67.14 270.00,70.00
             270.00,70.00 275.00,61.00 275.00,61.00
             272.07,60.34 270.09,59.89 267.84,62.43
             266.46,63.98 263.83,71.56 259.40,68.92
             257.79,67.97 257.75,64.92 255.00,62.00
             255.00,62.00 254.00,68.00 254.00,68.00
             254.00,68.00 249.00,68.00 249.00,68.00
             249.00,68.00 248.00,62.00 248.00,62.00 Z
           M 97.00,68.34
           C 93.01,69.50 83.91,74.99 84.96,80.04
             85.60,83.10 90.74,87.71 92.99,90.00
             95.45,92.50 100.24,99.16 104.04,98.26
             106.16,97.76 108.44,95.52 109.91,93.98
             121.09,82.26 111.10,66.82 97.00,68.34 Z
           M 204.00,77.00
           C 194.56,75.02 195.14,69.16 185.00,72.00
             185.00,72.00 194.00,81.00 194.00,81.00
             194.00,81.00 175.00,74.00 175.00,74.00
             175.00,74.00 182.00,84.00 182.00,84.00
             175.56,81.95 170.88,76.21 164.00,80.00
             164.00,80.00 176.00,88.00 176.00,88.00
             165.72,90.17 170.34,84.05 155.00,84.00
             155.00,84.00 166.91,94.10 166.91,94.10
             166.91,94.10 166.91,104.00 166.91,104.00
             174.74,101.37 169.65,96.96 178.00,89.00
             178.00,89.00 176.00,99.00 176.00,99.00
             183.12,96.39 180.92,92.75 186.00,87.00
             186.00,87.00 184.00,95.00 184.00,95.00
             191.14,93.77 187.91,89.92 194.00,84.00
             194.00,84.00 193.00,91.00 193.00,91.00
             199.53,89.53 201.35,82.65 204.00,77.00 Z
           M 97.00,72.76
           C 109.47,70.87 114.97,88.43 104.98,91.75
             101.18,93.02 98.02,88.43 95.84,86.00
             90.45,79.99 87.96,77.06 97.00,72.76 Z
           M 267.00,74.00
           C 270.51,76.05 270.94,77.13 272.00,81.00
             268.35,78.93 268.01,78.02 267.00,74.00 Z
           M 287.00,75.00
           C 291.16,77.22 291.47,78.43 292.00,83.00
             288.51,80.80 287.94,78.91 287.00,75.00 Z
           M 79.00,84.00
           C 79.00,84.00 77.89,87.11 77.89,87.11
             77.89,87.11 90.00,100.00 90.00,100.00
             83.00,100.76 74.26,97.42 69.06,98.16
             64.24,98.85 65.14,102.22 67.72,105.00
             72.27,109.89 77.81,113.85 83.00,118.00
             77.34,119.24 68.76,116.42 63.00,114.85
             60.62,114.20 56.66,112.91 54.87,115.40
             53.11,117.85 55.37,120.97 56.73,123.00
             60.49,128.64 66.23,134.49 68.00,141.00
             61.78,138.02 50.54,130.84 44.00,132.00
             44.00,132.00 44.00,134.00 44.00,134.00
             54.80,139.82 51.89,140.55 47.00,151.00
             42.38,149.13 40.04,147.22 35.00,148.00
             35.00,148.00 38.22,151.73 38.22,151.73
             38.22,151.73 57.00,161.10 57.00,161.10
             57.00,161.10 61.00,161.10 61.00,161.10
             58.55,156.37 55.87,155.39 51.00,154.00
             51.86,150.97 54.53,142.59 58.13,142.23
             61.55,141.90 65.31,146.46 69.10,143.50
             76.50,137.70 66.84,134.17 71.42,127.06
             75.18,121.22 78.41,124.46 81.79,123.32
             83.57,122.72 86.41,119.44 88.00,118.00
             88.00,118.00 74.00,104.23 74.00,104.23
             74.00,104.23 88.00,104.23 88.00,104.23
             88.00,104.23 95.96,105.31 95.96,105.31
             95.96,105.31 100.00,102.00 100.00,102.00
             100.00,102.00 79.00,84.00 79.00,84.00 Z
           M 429.00,87.00
           C 429.00,87.00 417.00,84.00 417.00,84.00
             417.00,84.00 420.00,91.00 420.00,91.00
             414.99,93.54 408.29,99.20 408.00,105.00
             413.80,103.02 425.09,92.02 429.00,87.00 Z
           M 165.00,95.00
           C 165.00,95.00 158.00,92.95 158.00,92.95
             151.26,90.12 151.28,88.20 144.00,92.00
             148.37,95.24 151.77,96.00 157.00,97.00
             146.32,105.91 148.48,94.29 136.00,97.00
             138.45,104.08 142.01,98.85 146.00,106.00
             135.71,107.25 135.04,99.81 127.00,105.00
             127.00,105.00 138.00,110.00 138.00,110.00
             138.00,110.00 135.78,114.29 135.78,114.29
             135.78,114.29 135.78,127.00 135.78,127.00
             143.49,120.19 136.80,117.74 143.00,111.00
             143.00,111.00 143.00,121.00 143.00,121.00
             150.79,116.45 145.18,112.32 151.00,106.00
             151.00,106.00 150.00,113.00 150.00,113.00
             157.45,112.92 153.17,108.15 160.00,100.00
             160.00,100.00 159.00,109.00 159.00,109.00
             164.13,106.11 163.56,100.43 165.00,95.00 Z
           M 418.00,108.00
           C 415.48,115.19 418.62,122.18 427.00,121.60
             432.64,121.21 440.27,116.06 442.68,111.00
             445.99,104.06 439.66,95.62 432.00,97.82
             424.23,100.04 421.94,110.84 430.00,114.00
             422.98,122.09 421.34,113.62 420.00,108.00
             420.00,108.00 418.00,108.00 418.00,108.00 Z
           M 434.00,101.88
           C 441.39,101.95 440.37,109.59 435.00,111.16
             431.55,112.16 428.40,109.28 429.45,106.03
             430.24,103.60 431.96,102.89 434.00,101.88 Z
           M 119.00,113.00
           C 119.00,113.00 125.00,114.40 125.00,114.40
             125.00,114.40 128.98,115.91 128.98,115.91
             130.79,116.42 134.40,116.27 132.83,113.45
             131.41,110.89 124.71,109.31 122.11,110.41
             120.52,111.09 120.09,111.87 119.00,113.00 Z
           M 459.00,129.23
           C 457.84,123.46 453.05,115.66 448.00,113.00
             448.00,113.00 447.00,114.00 447.00,114.00
             447.00,114.00 453.00,126.00 453.00,126.00
             443.14,126.00 438.35,125.90 429.00,130.00
             429.00,130.00 430.00,133.00 430.00,133.00
             430.00,133.00 448.00,129.23 448.00,129.23
             448.00,129.23 459.00,129.23 459.00,129.23 Z
           M 132.00,118.00
           C 132.00,118.00 115.00,120.00 115.00,120.00
             115.00,120.00 116.00,123.00 116.00,123.00
             116.00,123.00 122.00,122.00 122.00,122.00
             118.36,125.86 117.12,126.73 116.00,132.00
             124.54,131.00 122.57,127.44 128.00,122.00
             128.00,122.00 127.00,131.00 127.00,131.00
             134.14,128.83 133.51,124.22 132.00,118.00 Z
           M 61.00,119.00
           C 61.00,119.00 69.00,122.00 69.00,122.00
             65.00,128.16 62.16,124.37 61.00,119.00 Z
           M 444.00,145.00
           C 444.00,145.00 453.00,149.82 453.00,149.82
             454.87,150.79 456.85,151.66 459.00,151.71
             460.81,151.75 462.40,151.29 463.89,150.26
             474.94,142.64 458.01,126.55 454.00,138.00
             456.40,138.06 459.58,137.93 461.45,139.74
             464.08,142.28 462.29,146.28 458.95,146.87
             455.98,147.41 451.74,144.35 449.00,143.21
             445.26,141.65 441.95,142.00 438.00,142.00
             438.42,147.94 442.00,157.03 448.00,159.00
             448.00,159.00 444.00,145.00 444.00,145.00 Z
           M 271.00,139.09
           C 267.70,138.41 262.30,137.18 259.31,139.09
             256.53,141.03 257.01,145.06 257.00,148.00
             257.00,148.00 257.00,165.00 257.00,165.00
             257.00,167.95 257.31,172.21 255.26,174.57
             252.47,177.79 247.96,176.25 247.20,173.33
             246.22,169.54 251.34,167.31 252.44,166.11
             254.41,163.97 254.64,156.78 252.98,154.27
             250.82,151.41 245.84,153.03 243.00,154.27
             235.48,156.89 230.70,165.03 231.21,173.00
             232.53,193.80 257.33,197.42 266.43,185.91
             271.01,180.12 272.08,168.21 272.00,161.00
             272.00,161.00 271.00,148.00 271.00,148.00
             271.00,148.00 271.00,139.09 271.00,139.09 Z
           M 170.15,147.87
           C 166.82,149.92 167.08,151.04 167.00,155.00
             167.00,155.00 167.00,183.00 167.00,183.00
             167.00,183.00 168.00,198.00 168.00,198.00
             168.00,198.00 168.00,247.00 168.00,247.00
             168.00,247.00 166.43,279.00 166.43,279.00
             165.39,282.62 162.90,285.20 160.00,287.47
             145.21,299.03 130.33,285.34 129.20,274.00
             128.12,263.25 138.13,255.36 148.00,254.30
             153.07,253.76 157.78,256.18 159.90,253.40
             161.68,251.25 160.04,243.18 159.90,240.00
             159.90,240.00 159.90,210.00 159.90,210.00
             159.49,207.51 159.75,202.32 158.22,200.58
             155.78,197.80 147.52,197.96 144.00,198.00
             114.02,198.34 86.89,217.91 76.44,246.00
             73.18,254.77 73.00,260.89 72.32,270.00
             71.70,278.38 74.46,290.22 77.60,298.00
             82.76,310.75 91.69,323.06 103.00,331.02
             138.86,356.29 191.43,346.22 212.63,307.00
             217.04,298.83 220.88,289.41 221.00,280.00
             221.00,280.00 221.00,170.00 221.00,170.00
             221.00,170.00 220.00,155.00 220.00,155.00
             219.96,153.04 220.15,150.53 218.43,149.17
             216.62,147.75 212.26,148.00 210.00,147.87
             210.00,147.87 190.00,147.87 190.00,147.87
             183.39,147.99 176.64,146.13 170.15,147.87 Z
           M 381.00,167.00
           C 386.50,171.96 384.99,176.05 385.00,183.00
             385.00,185.30 384.62,189.41 386.60,190.98
             388.12,192.18 392.09,192.06 394.00,191.98
             399.56,191.75 399.90,190.19 400.00,185.00
             400.15,176.79 401.26,167.14 396.53,160.09
             389.13,149.06 374.77,154.61 371.00,154.33
             364.23,154.35 362.09,150.47 353.00,154.33
             340.92,159.01 342.82,174.36 343.00,185.00
             343.03,186.59 342.93,188.95 343.99,190.33
             345.87,192.58 355.11,192.76 356.98,190.33
             358.04,189.06 357.97,186.62 358.00,185.00
             358.13,177.94 356.21,171.95 362.00,167.00
             363.68,172.19 364.31,176.58 364.83,182.00
             365.04,184.21 364.70,188.74 366.02,190.40
             368.00,192.90 376.00,192.90 377.98,190.40
             379.04,189.06 378.97,186.62 379.00,185.00
             379.14,177.20 378.13,174.65 381.00,167.00 Z
           M 277.76,191.00
           C 277.76,191.00 284.00,191.89 284.00,191.89
             294.34,192.34 291.87,183.16 292.00,176.00
             292.17,166.71 296.45,167.56 296.53,161.00
             296.59,156.37 295.40,152.53 290.00,153.36
             279.73,154.93 276.96,167.24 277.76,176.00
             277.76,176.00 277.76,191.00 277.76,191.00 Z
           M 317.00,177.00
           C 317.00,177.00 317.00,161.00 317.00,161.00
             316.97,159.38 317.04,156.94 315.98,155.60
             314.18,153.32 304.82,153.32 303.02,155.60
             301.77,157.19 302.00,161.01 302.00,163.00
             301.98,171.15 300.77,180.60 306.80,187.03
             312.98,193.77 326.73,194.26 332.58,187.03
             336.52,182.06 336.99,175.99 337.00,170.00
             337.00,167.39 337.31,158.17 336.40,156.31
             334.90,153.25 326.01,153.08 324.02,155.60
             322.69,157.28 323.00,161.85 323.00,164.00
             323.00,164.00 322.00,177.00 322.00,177.00
             322.00,177.00 317.00,177.00 317.00,177.00 Z
           M 426.00,154.39
           C 412.25,158.50 414.03,168.46 412.27,172.96
             411.07,176.03 408.85,177.25 407.73,180.09
             405.56,185.60 406.45,193.12 414.00,191.61
             426.73,189.05 424.31,181.27 427.85,173.04
             429.45,169.31 431.59,168.47 432.57,164.96
             434.33,158.66 433.37,153.65 426.00,154.39 Z
           M 236.02,206.39
           C 234.36,206.88 233.15,206.94 232.02,208.51
             230.77,210.26 231.00,213.89 231.00,216.00
             231.00,216.00 231.00,233.00 231.00,233.00
             231.00,233.00 232.00,248.00 232.00,248.00
             232.00,248.00 232.00,287.00 232.00,287.00
             232.05,318.58 256.99,345.62 289.00,346.00
             299.62,346.12 307.58,344.96 317.00,339.57
             317.00,339.57 331.42,329.71 331.42,329.71
             333.90,329.41 341.33,336.10 344.00,337.73
             351.36,342.24 359.49,344.69 368.00,345.72
             390.57,348.42 418.54,335.31 427.83,314.00
             431.75,304.99 431.43,292.67 432.09,283.00
             432.09,283.00 433.00,271.00 433.00,271.00
             433.00,271.00 432.00,248.00 432.00,248.00
             432.00,248.00 432.00,217.00 432.00,217.00
             432.00,214.70 432.41,210.74 430.43,209.17
             428.37,207.56 421.03,208.07 418.00,207.72
             418.00,207.72 392.00,207.00 392.00,207.00
             389.36,207.03 383.63,207.23 381.60,208.98
             379.61,210.69 380.00,214.60 380.00,217.00
             380.00,217.00 380.00,276.00 380.00,276.00
             379.99,283.08 379.74,290.83 372.96,294.99
             370.70,296.38 368.59,296.82 366.00,296.16
             352.74,292.76 357.83,278.39 354.07,269.00
             349.06,256.48 340.68,252.84 328.00,253.00
             319.71,253.11 314.40,255.57 309.12,262.04
             305.37,266.63 303.76,271.15 303.17,277.00
             302.54,283.30 303.72,291.12 296.83,294.67
             291.62,297.35 286.35,292.81 284.70,288.00
             283.88,285.60 284.00,282.53 284.00,280.00
             284.00,280.00 284.00,235.00 284.00,235.00
             284.00,235.00 283.00,218.00 283.00,218.00
             282.98,207.84 283.61,207.02 274.00,207.00
             274.00,207.00 260.00,207.00 260.00,207.00
             260.00,207.00 236.02,206.39 236.02,206.39 Z
           M 23.00,292.00
           C 25.46,286.07 25.79,279.32 18.00,278.00
             18.00,278.00 19.00,292.00 19.00,292.00
             19.00,292.00 13.00,289.00 13.00,289.00
             14.05,295.44 20.72,300.05 27.00,301.00
             27.00,301.00 32.00,294.00 32.00,294.00
             29.09,305.72 20.91,302.05 13.00,298.00
             11.58,307.70 19.10,302.27 24.00,311.00
             24.00,311.00 13.00,307.00 13.00,307.00
             14.79,317.82 23.89,312.21 29.00,321.00
             29.00,321.00 16.00,317.00 16.00,317.00
             18.30,327.47 25.40,322.05 33.00,330.00
             33.00,330.00 20.00,326.00 20.00,326.00
             20.95,337.45 30.20,330.37 38.00,340.00
             38.00,340.00 24.00,336.00 24.00,336.00
             25.96,347.95 36.09,340.27 42.00,350.00
             42.00,350.00 30.00,347.00 30.00,347.00
             31.64,356.79 36.89,349.63 48.00,358.00
             48.00,358.00 35.00,357.00 35.00,357.00
             36.68,366.75 41.69,359.30 53.00,367.00
             47.21,368.26 46.29,367.23 41.00,365.00
             39.62,375.62 53.10,367.68 59.00,377.00
             59.00,377.00 46.00,376.00 46.00,376.00
             48.24,380.20 49.68,380.44 54.00,382.00
             50.74,392.03 64.16,387.16 68.59,390.02
             69.94,390.90 70.21,391.76 71.00,393.00
             66.32,393.00 61.88,392.14 58.00,395.00
             66.08,399.81 66.91,397.22 75.00,398.13
             75.00,398.13 83.00,400.00 83.00,400.00
             83.00,400.00 81.99,383.37 81.99,383.37
             81.99,383.37 78.57,379.65 78.57,379.65
             78.57,379.65 72.00,375.00 72.00,375.00
             72.00,375.00 70.00,382.00 70.00,382.00
             71.74,376.33 74.22,368.46 67.00,366.00
             66.84,370.91 66.30,373.25 63.00,377.00
             65.56,369.00 67.11,366.66 65.00,358.00
             65.00,358.00 63.00,358.00 63.00,358.00
             63.00,358.00 59.99,370.00 59.99,370.00
             55.99,364.93 60.31,364.00 59.99,355.00
             59.76,349.02 57.87,350.02 56.00,346.74
             54.48,344.09 55.32,343.12 53.00,340.00
             53.00,340.00 46.00,350.00 46.00,350.00
             46.00,350.00 50.69,337.96 50.69,337.96
             50.69,337.96 48.02,329.72 48.02,329.72
             48.02,329.72 46.62,324.45 46.62,324.45
             46.62,324.45 42.00,315.00 42.00,315.00
             42.00,315.00 40.00,315.00 40.00,315.00
             40.00,315.00 33.00,322.00 33.00,322.00
             37.46,314.76 41.55,312.01 39.00,303.00
             34.94,306.34 33.54,309.03 32.00,314.00
             32.00,314.00 30.00,314.00 30.00,314.00
             29.77,307.06 33.22,307.07 35.34,301.83
             37.75,295.86 32.45,287.70 28.00,284.00
             26.64,288.24 27.12,289.68 23.00,292.00 Z
           M 490.00,279.00
           C 482.73,282.17 482.76,285.95 484.00,293.00
             481.24,290.20 481.32,289.88 481.00,286.00
             475.11,287.88 471.05,297.14 473.02,303.00
             475.01,308.95 479.08,309.57 477.00,316.00
             474.68,311.15 473.21,307.49 469.00,304.00
             466.32,315.14 471.55,315.18 475.00,324.00
             475.00,324.00 466.00,316.00 466.00,316.00
             466.00,316.00 457.00,342.00 457.00,342.00
             457.00,342.00 454.00,341.00 454.00,341.00
             454.00,341.00 452.02,348.74 452.02,348.74
             452.02,348.74 448.11,356.02 448.11,356.02
             448.11,356.02 451.00,371.00 451.00,371.00
             451.00,371.00 444.00,359.00 444.00,359.00
             439.16,370.65 445.85,371.43 444.00,380.00
             444.00,380.00 441.00,368.00 441.00,368.00
             433.09,370.86 439.28,380.31 439.00,386.00
             439.00,386.00 436.00,376.00 436.00,376.00
             436.00,376.00 430.39,380.61 430.39,380.61
             430.39,380.61 425.95,385.27 425.95,385.27
             425.95,385.27 425.95,402.00 425.95,402.00
             437.26,397.51 447.11,402.71 450.00,394.00
             443.42,394.30 442.71,395.98 437.00,392.00
             437.00,392.00 456.00,388.00 456.00,388.00
             456.00,388.00 456.00,386.00 456.00,386.00
             456.00,386.00 445.00,384.00 445.00,384.00
             450.89,382.96 463.16,384.95 462.00,376.00
             462.00,376.00 450.00,378.00 450.00,378.00
             458.06,369.04 462.12,377.05 469.00,369.00
             463.52,367.49 461.30,368.47 456.00,370.00
             461.11,360.85 468.58,369.69 475.00,359.00
             475.00,359.00 461.00,361.00 461.00,361.00
             466.96,349.36 476.65,361.34 480.00,348.00
             474.25,348.88 472.83,350.52 467.00,349.00
             467.00,349.00 473.00,346.45 473.00,346.45
             479.15,344.54 482.80,345.30 485.00,338.00
             485.00,338.00 471.00,339.00 471.00,339.00
             478.21,336.50 487.17,336.10 490.00,328.00
             490.00,328.00 477.00,331.00 477.00,331.00
             484.00,323.55 493.21,327.82 492.00,318.00
             487.09,320.31 483.38,322.86 478.00,321.00
             481.86,319.23 493.28,315.29 494.93,311.87
             495.63,310.21 495.19,309.54 494.93,308.00
             494.93,308.00 484.00,312.00 484.00,312.00
             492.06,305.16 496.63,307.80 495.00,300.00
             495.00,300.00 486.00,304.00 486.00,304.00
             487.51,298.12 490.25,300.07 493.26,296.51
             494.91,294.55 494.86,292.39 495.00,290.00
             495.00,290.00 489.00,293.00 489.00,293.00
             489.00,293.00 490.00,279.00 490.00,279.00 Z
           M 476.00,296.00
           C 476.00,296.00 484.00,304.00 484.00,304.00
             478.19,303.54 476.87,301.68 476.00,296.00 Z
           M 40.00,325.00
           C 40.00,325.00 42.00,325.00 42.00,325.00
             41.76,329.12 41.15,329.42 38.00,332.00
             38.00,332.00 40.00,325.00 40.00,325.00 Z
           M 466.00,326.00
           C 469.69,328.23 470.34,329.74 470.00,334.00
             467.28,330.93 466.57,330.12 466.00,326.00 Z
           M 458.00,343.00
           C 461.81,345.41 462.65,347.60 462.00,352.00
             458.46,348.78 458.28,347.71 458.00,343.00 Z
           M 53.00,352.00
           C 53.00,352.00 55.00,352.00 55.00,352.00
             55.00,352.00 53.00,360.00 53.00,360.00
             53.00,360.00 53.00,352.00 53.00,352.00 Z
           M 454.00,353.00
           C 454.00,353.00 455.00,360.00 455.00,360.00
             455.00,360.00 454.00,353.00 454.00,353.00 Z
           M 76.00,383.00
           C 78.62,386.56 78.62,389.44 76.00,393.00
             76.00,393.00 76.00,383.00 76.00,383.00 Z
           M 431.00,383.00
           C 433.65,387.10 433.00,390.28 433.00,395.00
             433.00,395.00 431.00,395.00 431.00,395.00
             431.00,395.00 431.00,383.00 431.00,383.00 Z
           M 166.00,458.00
           C 166.27,455.95 168.55,443.10 162.48,446.17
             160.08,447.38 155.94,459.99 155.00,463.00
             159.49,462.95 160.11,461.20 163.00,458.00
             162.70,467.15 163.63,468.08 171.00,462.00
             171.00,462.00 171.00,470.00 171.00,470.00
             171.00,470.00 173.00,470.00 173.00,470.00
             173.00,470.00 180.00,452.00 180.00,452.00
             172.41,450.11 173.38,453.85 166.00,458.00 Z
           M 354.00,465.00
           C 354.86,459.86 350.07,455.33 346.49,451.98
             345.03,450.61 342.67,448.71 340.60,450.08
             338.76,451.29 339.01,455.06 339.00,457.00
             338.97,462.17 338.75,464.88 340.00,470.00
             340.00,470.00 342.00,470.00 342.00,470.00
             345.12,463.37 347.13,462.58 354.00,465.00 Z
           M 194.00,476.00
           C 194.00,472.56 194.62,459.69 192.98,457.45
             190.98,454.72 188.22,456.32 186.32,458.16
             183.34,461.07 179.33,467.06 178.00,471.00
             178.00,471.00 179.00,472.00 179.00,472.00
             179.00,472.00 185.96,470.94 185.96,470.94
             185.96,470.94 194.00,476.00 194.00,476.00 Z
           M 324.00,461.00
           C 322.91,458.88 322.42,457.52 319.94,456.61
             312.82,453.99 305.06,463.44 312.23,467.83
             314.05,468.94 320.16,469.31 323.00,470.00
             318.70,474.16 317.72,472.53 312.00,472.00
             314.35,479.08 322.76,477.43 325.40,474.49
             329.20,470.27 325.64,465.48 321.00,464.20
             319.02,463.93 316.07,464.01 314.00,464.20
             316.74,459.56 319.24,460.83 324.00,461.00 Z
           M 343.00,455.00
           C 345.53,457.65 346.30,458.69 343.00,461.00
             343.00,461.00 343.00,455.00 343.00,455.00 Z
           M 362.00,458.00
           C 362.00,458.00 360.00,458.00 360.00,458.00
             360.00,458.00 359.00,459.00 359.00,459.00
             359.00,459.00 359.00,461.00 359.00,461.00
             359.00,461.00 360.00,462.00 360.00,462.00
             360.00,462.00 362.00,462.00 362.00,462.00
             362.00,462.00 363.00,461.00 363.00,461.00
             363.00,461.00 363.00,459.00 363.00,459.00
             363.00,459.00 362.00,458.00 362.00,458.00 Z
           M 202.00,459.00
           C 202.00,459.00 199.35,475.85 199.35,475.85
             200.27,479.71 207.92,480.15 210.98,479.07
             217.18,476.89 221.54,463.56 210.00,459.90
             206.96,458.94 205.09,459.03 202.00,459.00 Z
           M 299.13,462.00
           C 299.13,462.00 294.00,462.00 294.00,462.00
             294.50,464.78 295.86,472.49 295.09,474.94
             294.32,477.40 292.10,479.02 290.08,476.63
             287.68,473.78 287.63,465.52 285.46,464.17
             283.36,462.85 282.57,465.47 282.61,467.06
             282.65,468.62 284.46,477.65 285.17,478.82
             288.33,484.32 297.12,483.45 299.13,478.82
             300.97,475.06 299.20,466.32 299.13,462.00 Z
           M 236.00,464.00
           C 236.00,464.00 222.00,463.00 222.00,463.00
             221.59,466.08 219.68,478.36 221.06,480.49
             222.42,482.58 227.64,483.50 230.00,483.67
             232.31,483.83 232.86,483.56 235.00,483.00
             230.79,478.72 223.70,478.68 225.91,475.55
             227.74,472.95 230.39,476.02 235.00,472.00
             233.38,471.58 227.01,470.76 227.62,468.21
             228.17,465.89 234.22,466.93 236.00,467.00
             236.00,467.00 236.00,464.00 236.00,464.00 Z
           M 187.00,463.00
           C 187.00,463.00 190.00,465.00 190.00,465.00
             190.00,465.00 187.00,463.00 187.00,463.00 Z
           M 207.30,464.36
           C 215.07,463.97 213.67,473.76 208.91,475.34
             203.22,477.24 202.64,468.22 207.30,464.36 Z
           M 251.00,465.00
           C 251.00,465.00 248.02,466.59 248.02,466.59
             248.02,466.59 247.00,484.00 247.00,484.00
             247.00,484.00 251.00,484.00 251.00,484.00
             251.00,484.00 251.00,465.00 251.00,465.00 Z
           M 267.00,474.00
           C 263.90,471.38 259.63,464.48 256.59,466.17
             253.56,467.86 255.93,480.63 256.00,484.00
             256.00,484.00 259.00,484.00 259.00,484.00
             259.00,479.02 258.59,477.57 261.00,473.00
             261.00,473.00 263.61,478.00 263.61,478.00
             263.61,478.00 265.44,480.87 265.44,480.87
             267.93,484.13 271.06,484.69 271.85,479.94
             272.49,476.14 271.92,468.79 271.00,465.00
             266.12,466.71 267.02,469.36 267.00,474.00 Z
           M 334.00,468.00
           C 334.00,468.00 331.00,471.00 331.00,471.00
             331.00,471.00 335.00,473.00 335.00,473.00
             335.00,473.00 334.00,468.00 334.00,468.00 Z" />
</svg>
